<svg width="27" height="27" viewBox="0 0 27 27" fill="none" xmlns="http://www.w3.org/2000/svg">
<path fill-rule="evenodd" clip-rule="evenodd" d="M16.0145 1.97444C15.3732 -0.658146 11.6268 -0.658146 10.9855 1.97444C10.8898 2.37003 10.702 2.73742 10.4375 3.04673C10.1729 3.35603 9.83908 3.59851 9.46311 3.75442C9.08715 3.91033 8.67968 3.97527 8.27388 3.94396C7.86808 3.91265 7.4754 3.78597 7.1278 3.57424C4.81248 2.16344 2.16302 4.8129 3.57381 7.12822C4.48509 8.62339 3.67676 10.5742 1.9757 10.9877C-0.658567 11.6272 -0.658567 15.3753 1.9757 16.0132C2.3714 16.1091 2.73886 16.297 3.04816 16.5618C3.35747 16.8265 3.59987 17.1606 3.75563 17.5367C3.91139 17.9129 3.97611 18.3205 3.94452 18.7265C3.91292 19.1324 3.78591 19.5251 3.57381 19.8726C2.16302 22.1879 4.81248 24.8374 7.1278 23.4266C7.47534 23.2145 7.86805 23.0875 8.27396 23.0559C8.67987 23.0243 9.08751 23.089 9.46368 23.2448C9.83984 23.4006 10.1739 23.643 10.4387 23.9523C10.7034 24.2616 10.8914 24.629 10.9872 25.0247C11.6268 27.659 15.3749 27.659 16.0128 25.0247C16.109 24.6292 16.2971 24.262 16.5619 23.9529C16.8267 23.6438 17.1607 23.4016 17.5368 23.2459C17.9128 23.0902 18.3203 23.0254 18.7261 23.0568C19.1319 23.0882 19.5246 23.2149 19.8722 23.4266C22.1875 24.8374 24.837 22.1879 23.4262 19.8726C23.2145 19.525 23.0878 19.1323 23.0564 18.7265C23.025 18.3207 23.0897 17.9132 23.2455 17.5372C23.4012 17.1611 23.6434 16.8271 23.9525 16.5623C24.2616 16.2975 24.6288 16.1094 25.0243 16.0132C27.6586 15.3736 27.6586 11.6256 25.0243 10.9877C24.6286 10.8918 24.2611 10.7038 23.9518 10.4391C23.6425 10.1743 23.4001 9.84027 23.2444 9.4641C23.0886 9.08793 23.0239 8.6803 23.0555 8.27438C23.0871 7.86847 23.2141 7.47576 23.4262 7.12822C24.837 4.8129 22.1875 2.16344 19.8722 3.57424C19.5247 3.78633 19.132 3.91335 18.726 3.94494C18.3201 3.97654 17.9125 3.91182 17.5363 3.75605C17.1602 3.60029 16.8261 3.35789 16.5613 3.04858C16.2966 2.73928 16.1086 2.37182 16.0128 1.97612L16.0145 1.97444ZM13.5 18.5631C14.8427 18.5631 16.1304 18.0297 17.0798 17.0803C18.0293 16.1308 18.5627 14.8431 18.5627 13.5004C18.5627 12.1577 18.0293 10.87 17.0798 9.92058C16.1304 8.97115 14.8427 8.43776 13.5 8.43776C12.1573 8.43776 10.8696 8.97115 9.92016 9.92058C8.97073 10.87 8.43734 12.1577 8.43734 13.5004C8.43734 14.8431 8.97073 16.1308 9.92016 17.0803C10.8696 18.0297 12.1573 18.5631 13.5 18.5631Z" fill="#63676C"/>
</svg>
